<svg height="50px" viewBox="0 0 496 496" fill="#d8d8d8" width="50px" xmlns="http://www.w3.org/2000/svg"><path d="m496 80v-16c0-8.824219-7.175781-16-16-16h-18.238281l-16-48h-395.53125l-16 48h-18.230469c-8.824219 0-16 7.175781-16 16v16c0 8.824219 7.175781 16 16 16v321.472656c-9.289062 3.3125-16 12.113282-16 22.527344v56h496v-56c0-10.414062-6.710938-19.214844-16-22.527344v-321.472656c8.824219 0 16-7.175781 16-16zm-434.230469-64h372.46875l10.671875 32h-393.8125zm-45.769531 48h464l.007812 16h-464.007812zm16 352v-281.679688c3.863281 2.328126 7.382812 5.054688 10.96875 7.925782 10.398438 8.320312 22.191406 17.753906 44.984375 17.753906 22.789063 0 34.582031-9.433594 44.984375-17.753906 9.558594-7.644532 17.804688-14.246094 34.992188-14.246094 17.191406 0 25.445312 6.601562 35 14.246094 10.40625 8.320312 22.199218 17.753906 45.007812 17.753906 22.804688 0 34.589844-9.433594 44.992188-17.753906 9.558593-7.644532 17.804687-14.246094 34.992187-14.246094 17.199219 0 25.460937 6.601562 35.015625 14.246094 10.40625 8.320312 22.207031 17.753906 45.015625 17.753906s34.605469-9.433594 45.015625-17.753906c3.605469-2.878906 7.144531-5.621094 11.03125-7.949219v281.703125zm-16 64v-16h16v-16h-16v-8c0-4.40625 3.585938-8 8-8h448c4.414062 0 8 3.59375 8 8v8h-16v16h16v16zm448-363.488281c-8.640625 3.535156-15.214844 8.59375-21.023438 13.242187-9.5625 7.644532-17.816406 14.246094-35.023437 14.246094-17.210937 0-25.464844-6.601562-35.015625-14.246094-10.410156-8.320312-22.203125-17.753906-45.015625-17.753906-22.808594 0-34.59375 9.433594-44.992187 17.753906-9.554688 7.644532-17.800782 14.246094-34.992188 14.246094-17.195312 0-25.457031-6.601562-35.007812-14.246094-10.410157-8.320312-22.195313-17.753906-45-17.753906-22.808594 0-34.59375 9.433594-44.992188 17.753906-9.546875 7.644532-17.792969 14.246094-34.984375 14.246094-17.175781 0-25.433594-6.601562-34.984375-14.246094-5.792969-4.640625-12.351562-9.691406-20.96875-13.226562v-20.527344h432zm0 0"/><path d="m48 448h400v16h-400zm0 0"/><path d="m359.238281 289.167969-17.261719-6.472657c-12.3125-4.617187-25.039062-7.597656-37.976562-9.222656v-9.472656c0-13.230469-10.769531-24-24-24h-36.222656c-15.242188 0-28.953125 8.472656-35.777344 22.113281l-4.945312 9.886719h-96.09375c-14.863282 0-26.960938 12.097656-26.960938 26.96875 0 4.6875 1.230469 9.320312 3.550781 13.375 19.617188 34.328125 56.371094 55.65625 95.914063 55.65625h44.535156v8c0 13.230469 10.769531 24 24 24h34.335938c16.457031 0 31.03125-9.871094 37.144531-25.144531l7.3125-18.28125c9.824219-3.804688 19.34375-8.46875 28.367187-14.109375l6.847656-4.28125c7.335938 8.390625 17.992188 13.816406 29.992188 13.816406h56v-8c0-13.070312-6.304688-24.695312-16.023438-32 9.71875-7.304688 16.023438-18.929688 16.023438-32v-8h-56c-13.558594 0-25.519531 6.816406-32.761719 17.167969zm-136.925781-19.902344c4.09375-8.1875 12.3125-13.265625 21.464844-13.265625h36.222656c4.414062 0 8 3.59375 8 8v8.222656c-1.671875-.046875-3.335938-.222656-5.015625-.222656h-62.039063zm82.304688 99.644531c-3.664063 9.167969-12.410157 15.089844-22.28125 15.089844h-34.335938c-4.414062 0-8-3.59375-8-8v-8h26.113281c13.886719 0 27.613281-1.816406 40.933594-5.160156zm42.054687-40.015625c-24.175781 15.113281-52.039063 23.105469-80.558594 23.105469h-86.648437c-6.914063 0-13.679688-.945312-20.289063-2.40625 19.097657-12.625 24.824219-33.738281 24.824219-45.59375l-16-.039062c-.015625 1.253906-.742188 29.984374-30.59375 37.902343-16.453125-8.214843-30.558594-21.007812-39.964844-37.472656-.9375-1.648437-1.441406-3.519531-1.441406-5.429687 0-6.039063 4.910156-10.960938 10.960938-10.960938h176.023437c18.296875 0 36.246094 3.257812 53.367187 9.679688l16.488282 6.183593c-.542969 2.625-.839844 5.34375-.839844 8.136719 0 4.296875.855469 8.359375 2.121094 12.238281zm45.328125 7.105469c-10.414062 0-19.214844-6.710938-22.527344-16h38.527344c10.433594 0 19.328125 6.6875 22.632812 16zm16-32h-38.527344c3.3125-9.289062 12.113282-16 22.527344-16h38.632812c-3.304687 9.3125-12.199218 16-22.632812 16zm0 0"/><path d="m136 304c0 4.417969-3.582031 8-8 8s-8-3.582031-8-8 3.582031-8 8-8 8 3.582031 8 8zm0 0"/><path d="m232 304h16v16h-16zm0 0"/><path d="m272 320h16v16h-16zm0 0"/><path d="m192 320h16v16h-16zm0 0"/><path d="m304 304h16v16h-16zm0 0"/><path d="m96 240c0-13.230469-10.769531-24-24-24s-24 10.769531-24 24 10.769531 24 24 24 24-10.769531 24-24zm-24 8c-4.414062 0-8-3.59375-8-8s3.585938-8 8-8 8 3.59375 8 8-3.585938 8-8 8zm0 0"/><path d="m136 224c13.230469 0 24-10.769531 24-24s-10.769531-24-24-24-24 10.769531-24 24 10.769531 24 24 24zm0-32c4.414062 0 8 3.59375 8 8s-3.585938 8-8 8-8-3.59375-8-8 3.585938-8 8-8zm0 0"/></svg>