<?xml version="1.0" ?><svg height="34px" version="1.1" viewBox="0 0 24 24" width="34px" xmlns="http://www.w3.org/2000/svg" xmlns:xlink="http://www.w3.org/1999/xlink"><title/><desc/><g fill="none" fill-rule="evenodd" id="icon/checkout" stroke="none" stroke-linecap="round" stroke-linejoin="round" stroke-width="1"><path d="M7.5,13.5 L7.5,15.5 L19.5,15.5 M5.5,5.5 L4.5,2.5 L2.5,2.5 M19,17.5 C18.171,17.5 17.5,18.171 17.5,19 C17.5,19.829 18.171,20.5 19,20.5 C19.829,20.5 20.5,19.829 20.5,19 C20.5,18.171 19.829,17.5 19,17.5 Z M7,17.5 C6.171,17.5 5.5,18.171 5.5,19 C5.5,19.829 6.171,20.5 7,20.5 C7.829,20.5 8.5,19.829 8.5,19 C8.5,18.171 7.829,17.5 7,17.5 Z M19.5,11.5 L7.5,13.5 L5.5,5.5 L20.5,5.5 L19.5,11.5 Z" id="lineart" stroke="#d8d8d8"/></g></svg>